# xmcd
#
# Track frame offsets: 
#        183
#        12193
#        27533
#        40653
#        57745
#        74215
#        84603
#        94258
#        106070
#        119768
#        133278
#        146698
#        158670
#        170840
#        184065
#        198843
#        211920
#        222195
#        233310
#        244828
#        255443
#        272425
#
# Disc length: 3773 seconds
#
# Revision: 9
# Processed by: cddbd v1.5.2PL0 Copyright (c) Steve Scherf et al.
# Submitted via: ExactAudioCopyFreeDBPlugin 1.0
#
DISCID=440ebb16
DTITLE=Dolly Parton - Anthology
DYEAR=1991
DGENRE=Country
TTITLE0=Jolene (1974)
TTITLE1=Old flames (can't hold a candle to you) (1989)
TTITLE2=Two doors down (1977)
TTITLE3=My Blue Ridge Mountain boy (1969)
TTITLE4=Save the last dance for me  (1980)
TTITLE5=Put it off until tomorrow (1967)
TTITLE6=Something fishy (1967)
TTITLE7=I've lived my life (1967)
TTITLE8=Coat of many colours (1969)
TTITLE9=Daddy come and get me (1969)
TTITLE10=My Tennessee Mountain home (1972)
TTITLE11=9 to 5 (1980)
TTITLE12=In the good old days (when times were bad) (1968)
TTITLE13=Joshua (1970)
TTITLE14=But you know I love you (1980)
TTITLE15=Daddy won't be home anymore (1967)
TTITLE16=Happy, happy birthday baby (1965)
TTITLE17=Dumb blonde (1967)
TTITLE18=The company you keep (1967)
TTITLE19=Too lonely too long (1967)
TTITLE20=Down from Dover (1969)
TTITLE21=Love is like a butterfly (1974)
EXTD=YEAR: 1991
EXTT0=
EXTT1=
EXTT2=
EXTT3=
EXTT4=
EXTT5=
EXTT6=
EXTT7=
EXTT8=
EXTT9=
EXTT10=
EXTT11=
EXTT12=
EXTT13=
EXTT14=
EXTT15=
EXTT16=
EXTT17=
EXTT18=
EXTT19=
EXTT20=
EXTT21=
PLAYORDER=
